<?xml version="1.0" encoding="UTF-8"?>
<svg version="1.1" xmlns="http://www.w3.org/2000/svg" width="303" height="237">
<path d="M0 0 C99.99 0 199.98 0 303 0 C303 78.21 303 156.42 303 237 C203.01 237 103.02 237 0 237 C0 158.79 0 80.58 0 0 Z " fill="#F5F6FB" transform="translate(0,0)"/>
<path d="M0 0 C99.99 0 199.98 0 303 0 C303 0.33 303 0.66 303 1 C231.72 1.495 231.72 1.495 159 2 C167.91 6.95 176.82 11.9 186 17 C190.455 19.97 190.455 19.97 195 23 C196.98539078 24.02869989 198.98545173 25.02964167 201 26 C203.94349056 27.62105277 206.84732939 29.30719038 209.75 31 C210.90048828 31.65742187 210.90048828 31.65742187 212.07421875 32.328125 C212.80769531 32.75609375 213.54117188 33.1840625 214.296875 33.625 C214.96041992 34.00914063 215.62396484 34.39328125 216.30761719 34.7890625 C218 36 218 36 220 39 C220.54194851 43.08485115 220.62607992 47.16895404 220.70019531 51.28686523 C220.7332837 52.63262189 220.78784078 53.97802883 220.86425781 55.32202148 C221.11254595 59.71834075 221.13390347 63.73076136 220 68 C217.09362835 71.11273731 214.10518994 72.87629655 210 74 C207.67480469 73.6262207 207.67480469 73.6262207 206 73 C206.01683838 72.21351074 206.03367676 71.42702148 206.05102539 70.61669922 C206.1014527 67.03504016 206.08264377 63.45692874 206.0625 59.875 C206.10407227 58.01875 206.10407227 58.01875 206.14648438 56.125 C206.21285866 49.64901552 206.21285866 49.64901552 203.40649414 44.07080078 C201.02413057 42.44410217 198.60599019 41.23789611 196 40 C193.82297832 38.74287288 191.65284014 37.47377908 189.48828125 36.1953125 C187.10135633 34.82969263 184.70641475 33.4783203 182.3125 32.125 C180.52776729 31.11162862 178.74356656 30.09732966 176.95968628 29.0824585 C175.77346913 28.40942662 174.58574708 27.73904003 173.39651489 27.0713501 C170.29416997 25.32615178 167.22883068 23.53983318 164.19677734 21.67480469 C163.57393356 21.29895233 162.95108978 20.92309998 162.30937195 20.53585815 C160.58121101 19.49061918 158.86290129 18.42914251 157.14526367 17.36669922 C153.40512381 15.74151076 151.86305774 15.81285667 148 17 C144.99887714 18.37402319 144.99887714 18.37402319 141.9921875 20.17578125 C140.84919189 20.83376709 139.70619629 21.49175293 138.52856445 22.16967773 C137.31051333 22.88361701 136.09266228 23.59789773 134.875 24.3125 C133.62560515 25.03716249 132.37584621 25.76119759 131.12573242 26.48461914 C114.1164702 35.05108881 114.1164702 35.05108881 99 46 C98.87987108 47.88048334 98.82978829 49.76547798 98.80712891 51.6496582 C98.78303452 53.46207756 98.78303452 53.46207756 98.75845337 55.31111145 C98.71420583 60.84664841 98.67248886 66.38205293 98.64990234 71.91772461 C98.63326313 75.56658182 98.58849886 79.21453421 98.5375309 82.86304951 C98.50387156 85.66748592 98.49232645 88.47170745 98.48667526 91.27632713 C98.47669104 93.27504877 98.44243662 95.27360134 98.40786743 97.27204895 C98.41071747 98.489785 98.4135675 99.70752106 98.41650391 100.9621582 C98.40841705 102.033918 98.4003302 103.1056778 98.39199829 104.20991516 C99.211382 107.97001984 100.84420293 108.93202119 104 111 C105.8677363 112.13331005 107.76161972 113.22434034 109.67578125 114.27734375 C110.75150391 114.87353516 111.82722656 115.46972656 112.93554688 116.08398438 C114.04994141 116.69564453 115.16433594 117.30730469 116.3125 117.9375 C124.43456225 122.41389082 132.38647203 127.00035141 140.16015625 132.0546875 C141.11792969 132.65539062 142.07570312 133.25609375 143.0625 133.875 C144.02285156 134.49117187 144.98320312 135.10734375 145.97265625 135.7421875 C149.84328808 137.35037259 151.92192973 136.84630513 156 136 C159.00097452 134.73889183 159.00097452 134.73889183 161.88671875 133.04296875 C162.98121338 132.43026123 164.07570801 131.81755371 165.20336914 131.1862793 C166.36502483 130.52050565 167.52639633 129.85423591 168.6875 129.1875 C169.88562616 128.50953563 171.08411627 127.83221407 172.28295898 127.15551758 C189.63828934 118.38829713 189.63828934 118.38829713 205 107 C205.20594296 104.96338166 205.20594296 104.96338166 205.0625 102.640625 C204.84711684 88.42797914 204.84711684 88.42797914 208.14453125 84.34375 C212.30636308 81.85761913 215.12783972 81 220 81 C220.09915614 85.60809095 220.17160182 90.21555592 220.21972656 94.82446289 C220.23979558 96.39097923 220.26705751 97.95742109 220.30175781 99.52368164 C220.35048754 101.78029794 220.3730147 104.03592083 220.390625 106.29296875 C220.41127014 106.98899704 220.43191528 107.68502533 220.45318604 108.40214539 C220.454747 111.81371756 220.09695377 113.84008813 218.31640625 116.77685547 C215.84999213 119.14396834 213.55770906 120.66374545 210.546875 122.27734375 C209.46390137 122.86660645 208.38092773 123.45586914 207.26513672 124.06298828 C206.1051416 124.68157715 204.94514648 125.30016602 203.75 125.9375 C201.30705044 127.26172107 198.86845754 128.59388229 196.4296875 129.92578125 C195.50175888 130.43066071 195.50175888 130.43066071 194.55508423 130.94573975 C187.26501969 134.92291628 180.11175382 139.13064485 172.95605469 143.34350586 C171.14915844 144.40632058 169.33939677 145.46428369 167.52636719 146.51660156 C165.87144114 147.48831887 164.23053257 148.48440973 162.60644531 149.50683594 C158.58760264 151.95316264 155.05937429 153.90574607 150.17578125 153.55175781 C145.19045387 152.28752533 140.88460773 149.48097195 136.5 146.875 C135.41428711 146.24770996 134.32857422 145.62041992 133.20996094 144.97412109 C130.93693254 143.65776 128.6684246 142.33356504 126.40429688 141.00195312 C123.10694507 139.06289082 119.79803497 137.14540631 116.484375 135.234375 C110.63694996 131.85528939 104.81261919 128.43856011 99 125 C98.25073242 124.55833496 97.50146484 124.11666992 96.72949219 123.66162109 C94.85615184 122.55359249 92.98898827 121.43616942 91.125 120.3125 C90.15820312 119.73113281 89.19140625 119.14976563 88.1953125 118.55078125 C86 117 86 117 84 114 C83.79094485 111.54529206 83.69595709 109.20228919 83.69360352 106.74633789 C83.68528 106.01105362 83.67695648 105.27576935 83.66838074 104.51820374 C83.64427458 102.08630082 83.63550857 99.65466599 83.62890625 97.22265625 C83.61994129 95.53258686 83.61081947 93.84251829 83.60154724 92.15245056 C83.58505368 88.60918244 83.57735631 85.06600885 83.57446289 81.52270508 C83.56907463 76.98162304 83.53137872 72.4414287 83.48571873 67.90059757 C83.45598375 64.40987396 83.44874014 60.91936519 83.44773674 57.42852592 C83.44352831 55.75434739 83.43106901 54.08016857 83.41021919 52.40611458 C83.38337293 50.06442972 83.38810771 47.72481659 83.40063477 45.38305664 C83.38580048 44.69149475 83.37096619 43.99993286 83.35568237 43.28741455 C83.41159787 39.61853289 83.7341531 38.26386856 86.38058472 35.63713074 C87.24499176 35.09687759 88.1093988 34.55662445 89 34 C89.82830322 33.47954102 90.65660645 32.95908203 91.51000977 32.42285156 C92.83730103 31.66439941 92.83730103 31.66439941 94.19140625 30.890625 C95.71314453 30.01688232 95.71314453 30.01688232 97.265625 29.12548828 C98.89757812 28.19712158 98.89757812 28.19712158 100.5625 27.25 C101.69042969 26.60401855 102.81835938 25.95803711 103.98046875 25.29248047 C106.38938686 23.91289681 108.7998041 22.53598478 111.21142578 21.16113281 C115.10102321 18.94345194 118.98620073 16.71809594 122.87109375 14.4921875 C127.77731993 11.68257429 132.68422052 8.8741501 137.59375 6.0703125 C138.59083984 5.50070801 139.58792969 4.93110352 140.61523438 4.34423828 C142.05902317 3.53040729 143.51761086 2.74119457 145 2 C74.215 1.505 74.215 1.505 2 1 C2 78.88 2 156.76 2 237 C1.34 237 0.68 237 0 237 C0 158.79 0 80.58 0 0 Z " fill="#46A9FE" transform="translate(0,0)"/>
<path d="M0 0 C2.87091582 1.21930255 5.40362732 2.78112902 8 4.5 C8.67933594 4.92925781 9.35867187 5.35851563 10.05859375 5.80078125 C11.71595637 6.85122235 13.35949645 7.92341955 15 9 C14.23632812 12.81005859 14.23632812 12.81005859 12.109375 14.51953125 C11.33078125 14.94621094 10.5521875 15.37289062 9.75 15.8125 C8.98171875 16.25207031 8.2134375 16.69164063 7.421875 17.14453125 C4.44336058 18.19661941 3.02215851 17.81964602 0 17 C-3.9088575 15.95728868 -5.45687664 15.75751062 -9.2109375 17.43359375 C-10.25507813 18.09488281 -11.29921875 18.75617187 -12.375 19.4375 C-13.96441406 20.42556641 -13.96441406 20.42556641 -15.5859375 21.43359375 C-16.38257813 21.95050781 -17.17921875 22.46742187 -18 23 C-16.7619345 26.71419649 -15.60319782 27.19537352 -12.3125 29.1875 C-11.46300781 29.71730469 -10.61351562 30.24710938 -9.73828125 30.79296875 C-6.43054812 32.25101374 -4.58729189 32.4983597 -1 32 C1.57280333 30.71359834 3.85366111 29.42720561 6.25 27.875 C6.90605225 27.46773682 7.56210449 27.06047363 8.23803711 26.64086914 C11.1758772 24.81466368 14.08406114 22.9456075 16.98828125 21.06640625 C20.39112107 18.9131677 23.17342407 17.1818467 27.125 16.3125 C31.33627287 17.31954351 34.46648586 19.57269862 38 22 C38.66 22.33 39.32 22.66 40 23 C40.95336053 25.86008158 41.14191555 27.7108761 41.17700195 30.68334961 C41.19625481 32.10513771 41.19625481 32.10513771 41.21589661 33.5556488 C41.22328354 34.57755814 41.23067047 35.59946747 41.23828125 36.65234375 C41.246353 37.70402237 41.25442474 38.75570099 41.26274109 39.83924866 C41.27657284 42.0642838 41.28729906 44.28934007 41.29516602 46.5144043 C41.31241551 49.92081599 41.35631473 53.32626632 41.40039062 56.73242188 C41.41051445 58.89322203 41.41903152 61.05403043 41.42578125 63.21484375 C41.44328934 64.23472885 41.46079742 65.25461395 41.47883606 66.30540466 C41.45725719 73.32002351 41.45725719 73.32002351 39.35644531 76.4440918 C36.56711539 78.28582404 33.78300309 80.03500399 30.87109375 81.6796875 C30.28135269 82.01493439 29.69161163 82.35018127 29.08399963 82.69558716 C27.20522696 83.76152299 25.32146634 84.81827648 23.4375 85.875 C22.19954209 86.57624472 20.96190893 87.27806306 19.72460938 87.98046875 C17.30403493 89.35319998 14.87707318 90.71350412 12.44482422 92.06542969 C10.23208974 93.30807377 8.03408787 94.57753715 5.85595703 95.87988281 C4.90446777 96.43772461 3.95297852 96.99556641 2.97265625 97.5703125 C1.74107788 98.3130542 1.74107788 98.3130542 0.48461914 99.07080078 C-2.79429845 100.29705217 -4.64296783 99.91771483 -8 99 C-10.73803711 97.74414063 -10.73803711 97.74414063 -13.52734375 96.15625 C-14.56052734 95.57327148 -15.59371094 94.99029297 -16.65820312 94.38964844 C-18.28145508 93.45427246 -18.28145508 93.45427246 -19.9375 92.5 C-21.04673828 91.86868164 -22.15597656 91.23736328 -23.29882812 90.58691406 C-26.53947328 88.73633015 -29.77134768 86.87141397 -33 85 C-33.86254395 84.50177734 -34.72508789 84.00355469 -35.61376953 83.49023438 C-37.74811738 82.25269767 -39.87623653 81.00559528 -42 79.75 C-42.91446899 79.21342773 -42.91446899 79.21342773 -43.84741211 78.66601562 C-47.87989416 76.24021168 -47.87989416 76.24021168 -49 74 C-49.08675538 71.30106819 -49.11557897 68.62830769 -49.09765625 65.9296875 C-49.0962413 65.13345978 -49.09482635 64.33723206 -49.09336853 63.51687622 C-49.08776345 60.9695462 -49.07521014 58.42230353 -49.0625 55.875 C-49.05748565 54.14974085 -49.05292263 52.42448033 -49.04882812 50.69921875 C-49.03779237 46.46611209 -49.02052436 42.23307086 -49 38 C-45.34645401 36.95737555 -43.38854153 37.02098726 -39.8125 38.5 C-37.14453125 40.11328125 -37.14453125 40.11328125 -35 43 C-33.58947633 49.74913803 -33.91723229 56.78617454 -34.16015625 63.64331055 C-34.17763476 66.27197455 -34.17763476 66.27197455 -32 69 C-29.87535761 70.39886285 -29.87535761 70.39886285 -27.3125 71.6875 C-23.89222421 73.48122456 -20.48188749 75.27919347 -17.11328125 77.16796875 C-15.7838902 77.90371095 -14.45446345 78.63938863 -13.125 79.375 C-12.49505127 79.73295654 -11.86510254 80.09091309 -11.21606445 80.4597168 C-7.57751433 82.4468914 -5.12262366 83.44214529 -1 83 C1.807445 81.76666566 1.807445 81.76666566 4.6328125 80.0078125 C5.68597656 79.38519531 6.73914063 78.76257813 7.82421875 78.12109375 C8.91347656 77.46238281 10.00273437 76.80367188 11.125 76.125 C12.22199219 75.47402344 13.31898438 74.82304688 14.44921875 74.15234375 C18.34750792 71.83250296 22.22516136 69.51655909 26 67 C26.26697888 64.37537756 26.34832984 61.98934067 26.29296875 59.3671875 C26.28872391 58.61535187 26.28447906 57.86351624 26.28010559 57.08889771 C26.2632917 54.68390315 26.22563624 52.27974191 26.1875 49.875 C26.17245659 48.24610584 26.15876758 46.61719856 26.14648438 44.98828125 C26.11337954 40.99186566 26.06158009 36.99607418 26 33 C25.25427734 33.45439453 24.50855469 33.90878906 23.74023438 34.37695312 C20.94529367 36.0684908 18.14174961 37.74356988 15.33105469 39.40869141 C14.1209039 40.12994127 12.91442391 40.8573901 11.71191406 41.59130859 C9.97369435 42.65067136 8.22310035 43.68637509 6.46875 44.71875 C5.42138672 45.34716797 4.37402344 45.97558594 3.29492188 46.62304688 C-0.69713915 48.29133557 -3.73922085 48.69588562 -8 48 C-11.36743164 46.59472656 -11.36743164 46.59472656 -14.66015625 44.640625 C-15.25372421 44.29497498 -15.84729218 43.94932495 -16.45884705 43.59320068 C-18.33671286 42.49479225 -20.19939831 41.37323046 -22.0625 40.25 C-23.31481217 39.51141951 -24.56806187 38.77442626 -25.82226562 38.0390625 C-28.1416324 36.67663513 -30.45348144 35.30386251 -32.76196289 33.92285156 C-34.45813956 32.91560679 -36.15868082 31.91394502 -37.89279175 30.97351074 C-41.13258768 29.20947829 -42.91617529 28.12573707 -45 25 C-44.82177734 22.94946289 -44.82177734 22.94946289 -44 21 C-41.5621493 19.30318332 -39.21634474 17.86117717 -36.625 16.4375 C-35.07646156 15.5644427 -33.52829876 14.69071889 -31.98046875 13.81640625 C-31.16755371 13.36152832 -30.35463867 12.90665039 -29.51708984 12.43798828 C-26.95462291 10.97407652 -24.43888728 9.44927971 -21.92578125 7.90234375 C-21.09288574 7.39711182 -20.25999023 6.89187988 -19.40185547 6.37133789 C-17.7931024 5.39451527 -16.19144009 4.40589011 -14.59814453 3.40405273 C-9.41296795 0.30583965 -6.04831846 -0.89915537 0 0 Z " fill="#FE3636" transform="translate(156,27)"/>
<path d="M0 0 C3.50625 -0.061875 7.0125 -0.12375 10.625 -0.1875 C11.71893066 -0.21481201 12.81286133 -0.24212402 13.93994141 -0.27026367 C19.35641752 -0.31646916 23.37209282 -0.17495958 28 3 C30.05250439 7.10500878 29.27319834 12.36316944 29.3125 16.875 C29.34150391 17.97714844 29.37050781 19.07929688 29.40039062 20.21484375 C29.40876953 21.27574219 29.41714844 22.33664063 29.42578125 23.4296875 C29.44036377 24.40147949 29.45494629 25.37327148 29.4699707 26.37451172 C28.86525867 29.75273158 27.6551703 30.8935029 25 33 C21.99984088 34.00005304 20.02576244 34.11575585 16.89453125 34.09765625 C16.00870361 34.09515869 15.12287598 34.09266113 14.21020508 34.09008789 C13.0889624 34.08098389 11.96771973 34.07187988 10.8125 34.0625 C7.244375 34.041875 3.67625 34.02125 0 34 C0 22.78 0 11.56 0 0 Z " fill="#565656" transform="translate(126,193)"/>
<path d="M0 0 C3.63 0 7.26 0 11 0 C14.0625 3.9375 14.0625 3.9375 15.09765625 6.15234375 C15.85702046 8.18161444 15.85702046 8.18161444 18 9 C18.268125 8.2575 18.53625 7.515 18.8125 6.75 C19.9911167 4.02057185 20.96181278 2.1567395 23 0 C25.4453125 -0.42578125 25.4453125 -0.42578125 28.125 -0.3125 C29.01445313 -0.28800781 29.90390625 -0.26351562 30.8203125 -0.23828125 C33 0 33 0 34 1 C34.1007812 3.36398468 34.13973215 5.69811311 34.1328125 8.0625 C34.13376923 8.76898682 34.13472595 9.47547363 34.13571167 10.20336914 C34.13639333 11.69970793 34.13454005 13.19604967 34.13037109 14.69238281 C34.12502257 16.99030157 34.13031651 19.28802486 34.13671875 21.5859375 C34.13605797 23.03645877 34.1347768 24.48697991 34.1328125 25.9375 C34.13483673 26.6291626 34.13686096 27.3208252 34.13894653 28.03344727 C34.11495224 32.88504776 34.11495224 32.88504776 33 34 C29.66381769 34.14257189 26.34024394 34.04228157 23 34 C22.67 28.39 22.34 22.78 22 17 C21.01 18.65 20.02 20.3 19 22 C16.5 22.625 16.5 22.625 14 22 C13.01 20.35 12.02 18.7 11 17 C10.67 22.61 10.34 28.22 10 34 C6.7 34 3.4 34 0 34 C0 22.78 0 11.56 0 0 Z " fill="#575757" transform="translate(82,193)"/>
<path d="M0 0 C0.93134766 0.01804688 1.86269531 0.03609375 2.82226562 0.0546875 C5.11112149 0.10163839 7.39944527 0.17337677 9.6875 0.25 C9.6875 3.22 9.6875 6.19 9.6875 9.25 C5.0675 9.25 0.4475 9.25 -4.3125 9.25 C-4.3125 10.24 -4.3125 11.23 -4.3125 12.25 C-3.64863281 12.28738281 -2.98476562 12.32476562 -2.30078125 12.36328125 C-1.41777344 12.42902344 -0.53476563 12.49476563 0.375 12.5625 C1.24511719 12.62050781 2.11523438 12.67851562 3.01171875 12.73828125 C6.27996026 13.36330262 8.15288368 14.06653834 10.6875 16.25 C11.28125 19.5 11.28125 19.5 11.1875 23.25 C11.1771875 24.4875 11.166875 25.725 11.15625 27 C10.6875 30.25 10.6875 30.25 9.34375 32.125 C6.2820168 34.20466783 3.60077476 34.37046672 0.01953125 34.34765625 C-0.87314453 34.34443359 -1.76582031 34.34121094 -2.68554688 34.33789062 C-4.07870117 34.32532227 -4.07870117 34.32532227 -5.5 34.3125 C-6.91055664 34.30573242 -6.91055664 34.30573242 -8.34960938 34.29882812 C-10.67060008 34.28704645 -12.99155807 34.26911114 -15.3125 34.25 C-15.3125 31.28 -15.3125 28.31 -15.3125 25.25 C-14.24128906 25.20101562 -13.17007813 25.15203125 -12.06640625 25.1015625 C-10.66924361 25.02654706 -9.2721095 24.9509987 -7.875 24.875 C-7.16794922 24.8440625 -6.46089844 24.813125 -5.73242188 24.78125 C-3.92010812 24.67719371 -2.11432012 24.47080108 -0.3125 24.25 C0.0175 23.59 0.3475 22.93 0.6875 22.25 C-0.04855469 22.22421875 -0.78460938 22.1984375 -1.54296875 22.171875 C-2.51878906 22.11515625 -3.49460938 22.0584375 -4.5 22 C-5.94439453 21.93039063 -5.94439453 21.93039063 -7.41796875 21.859375 C-11.08644941 21.08706328 -12.77226873 20.00457753 -15.3125 17.25 C-15.9765625 14.15625 -15.9765625 14.15625 -15.9375 10.75 C-15.95039063 9.6259375 -15.96328125 8.501875 -15.9765625 7.34375 C-15.3125 4.25 -15.3125 4.25 -13.41796875 1.859375 C-8.92685457 -0.46809549 -4.97481387 -0.18282001 0 0 Z " fill="#565757" transform="translate(212.3125,192.75)"/>
<path d="M0 0 C0.9583374 0.00523682 1.9166748 0.01047363 2.90405273 0.01586914 C4.45576172 0.02070313 4.45576172 0.02070313 6.03881836 0.02563477 C7.12743164 0.03401367 8.21604492 0.04239258 9.33764648 0.05102539 C10.97636719 0.05779297 10.97636719 0.05779297 12.64819336 0.06469727 C15.35723144 0.07652713 18.06616248 0.09300996 20.77514648 0.11352539 C20.77514648 3.08352539 20.77514648 6.05352539 20.77514648 9.11352539 C18.79514648 9.11352539 16.81514648 9.11352539 14.77514648 9.11352539 C14.77514648 14.39352539 14.77514648 19.67352539 14.77514648 25.11352539 C16.75514648 25.11352539 18.73514648 25.11352539 20.77514648 25.11352539 C20.77514648 28.08352539 20.77514648 31.05352539 20.77514648 34.11352539 C16.96266222 34.14239775 13.15020579 34.16028031 9.33764648 34.17602539 C8.2490332 34.1844043 7.16041992 34.1927832 6.03881836 34.20141602 C5.0043457 34.20463867 3.96987305 34.20786133 2.90405273 34.21118164 C1.94571533 34.21641846 0.98737793 34.22165527 0 34.22705078 C-2.22485352 34.11352539 -2.22485352 34.11352539 -3.22485352 33.11352539 C-3.36600513 30.44293688 -3.26732459 27.78920301 -3.22485352 25.11352539 C-0.91485352 25.11352539 1.39514648 25.11352539 3.77514648 25.11352539 C3.77514648 19.83352539 3.77514648 14.55352539 3.77514648 9.11352539 C1.46514648 9.11352539 -0.84485352 9.11352539 -3.22485352 9.11352539 C-3.32250977 2.96118164 -3.32250977 2.96118164 -3.22485352 1.11352539 C-2.22485352 0.11352539 -2.22485352 0.11352539 0 0 Z " fill="#575757" transform="translate(167.224853515625,192.886474609375)"/>
<path d="M0 0 C2.31 0 4.62 0 7 0 C8 1 8 1 8.1328125 4.125 C8.13023437 5.40375 8.12765625 6.6825 8.125 8 C8.12757813 9.27875 8.13015625 10.5575 8.1328125 11.875 C8 15 8 15 7 16 C4.69 16 2.38 16 0 16 C0 10.72 0 5.44 0 0 Z " fill="#ECEDF2" transform="translate(137,202)"/>
</svg>
